<svg width="90" height="90" viewBox="0 0 90 90" fill="none" xmlns="http://www.w3.org/2000/svg">
<path d="M45 68.3333V87M35.6667 82.3333L54.3333 73M35.6667 73L54.3333 82.3333M12.3333 68.3333V87M3 82.3333L21.6667 73M3 73L21.6667 82.3333M77.6667 68.3333V87M68.3333 82.3333L87 73M68.3333 73L87 82.3333M21.6667 54.3333C21.6667 51.858 22.65 49.484 24.4003 47.7337C26.1507 45.9833 28.5246 45 31 45H59C61.4754 45 63.8493 45.9833 65.5997 47.7337C67.35 49.484 68.3333 51.858 68.3333 54.3333M31 17C31 20.713 32.475 24.274 35.1005 26.8995C37.726 29.525 41.287 31 45 31C48.713 31 52.274 29.525 54.8995 26.8995C57.525 24.274 59 20.713 59 17C59 13.287 57.525 9.72601 54.8995 7.10051C52.274 4.475 48.713 3 45 3C41.287 3 37.726 4.475 35.1005 7.10051C32.475 9.72601 31 13.287 31 17Z" stroke="#4D44B5" stroke-width="5" stroke-linecap="round" stroke-linejoin="round"/>
</svg>
